<svg width="448" height="512" xmlns="http://www.w3.org/2000/svg" role="img" class="svg-inline--fa fa-angle-double-left fa-w-14" data-icon="angle-double-left" data-prefix="fas" focusable="false" aria-hidden="true">

 <g>
  <title>Layer 1</title>
  <path stroke="#cccccc" id="svg_1" d="m223.7,239l136,-136c9.4,-9.4 24.6,-9.4 33.9,0l22.6,22.6c9.4,9.4 9.4,24.6 0,33.9l-96.3,96.5l96.4,96.4c9.4,9.4 9.4,24.6 0,33.9l-22.6,22.7c-9.4,9.4 -24.6,9.4 -33.9,0l-136,-136c-9.5,-9.4 -9.5,-24.6 -0.1,-34zm-192,34l136,136c9.4,9.4 24.6,9.4 33.9,0l22.6,-22.6c9.4,-9.4 9.4,-24.6 0,-33.9l-96.3,-96.5l96.4,-96.4c9.4,-9.4 9.4,-24.6 0,-33.9l-22.6,-22.7c-9.4,-9.4 -24.6,-9.4 -33.9,0l-136,136c-9.5,9.4 -9.5,24.6 -0.1,34z" fill="#ffffff"/>
 </g>
</svg>