<svg width="41" height="40" xmlns="http://www.w3.org/2000/svg" fill="none">
 <g>
  <title>Layer 1</title>
  <path stroke="#bdae82" d="m21.4528,40c-5.7462,0 -11.1378,-2.1826 -15.18182,-6.1455c-4.04397,-3.963 -6.27098,-9.2471 -6.27098,-14.8784c-0.00086,-3.8848 1.09674,-7.6938 3.17098,-11.00429c2.07423,-3.31049 5.04396,-5.99295 8.57952,-7.74964c0.3638,-0.18172 0.7741,-0.25441 1.1797,-0.20901c0.4057,0.0454 0.7887,0.20688 1.1013,0.46429c0.3125,0.25741 0.5408,0.59934 0.6563,0.98312c0.1155,0.38377 0.1131,0.79237 -0.0069,1.17481c-1.0089,3.19358 -1.1081,6.59663 -0.2868,9.84142c0.8213,3.2448 2.5318,6.2079 4.9467,8.5692c1.7331,1.711 3.7952,3.0681 6.067,3.9928c2.2718,0.9247 4.7082,1.3986 7.1682,1.3942c1.8819,0.0015 3.7532,-0.2752 5.5509,-0.8205c0.3903,-0.1177 0.8073,-0.1201 1.1989,-0.0069c0.3917,0.1132 0.7407,0.3369 1.0033,0.6432c0.2627,0.3064 0.4275,0.6818 0.4738,1.0794c0.0463,0.3975 -0.0279,0.7997 -0.2134,1.1561c-1.7926,3.4649 -4.5298,6.3753 -7.9078,8.408c-3.3781,2.0328 -7.2648,3.1085 -11.2289,3.1077zm-9.7765,-36.68569c-2.74167,1.63477 -5.00644,3.93527 -6.57525,6.67896c-1.5688,2.74373 -2.38853,5.83773 -2.3799,8.98283c0,10.1221 8.40295,18.3572 18.73165,18.3572c3.2093,0.0085 6.3665,-0.7949 9.1662,-2.3323c2.7997,-1.5374 5.1472,-3.7569 6.8153,-6.4437c-1.593,0.3613 -3.223,0.5434 -4.8581,0.5427c-2.8175,0.0053 -5.608,-0.5372 -8.2101,-1.5959c-2.6021,-1.0588 -4.964,-2.6128 -6.9491,-4.5722c-2.5788,-2.5225 -4.4592,-5.6474 -5.4637,-9.0797c-1.0044,-3.4323 -1.0997,-7.05891 -0.277,-10.53739l0,-0.0005z" fill="#fffcfc" id="svg_1"/>
 </g>

</svg>